<svg xmlns="http://www.w3.org/2000/svg" viewBox="0 0 511.999 511.999" style="enable-background:new 0 0 511.999 511.999"
    xml:space="preserve">
    <path style="fill:#298983" d="m256.002 223.181-59.006 59.006v208.258h118.009V282.187z" />
    <path transform="rotate(-134.999 142.826 222.425)" style="fill:#a5f2e5" d="M83.82 142.927h118.012V301.92H83.82z" />
    <path style="fill:#62d9c7"
        d="M364.938 134.747 256.2 26.008l-83.444 83.444L383.67 320.367l83.446-83.444-47.569-47.569c-4.209-4.209-4.209-11.031 0-15.24l-39.366-39.366c-4.21 4.207-11.034 4.207-15.243-.001z" />
    <path
        d="m489.974 229.303-55.19-55.189c-4.209-4.209-11.033-4.209-15.24 0-4.209 4.209-4.209 11.033 0 15.24l47.569 47.569-83.446 83.444-210.913-210.913 83.444-83.444 108.738 108.738c4.209 4.209 11.033 4.209 15.24 0 4.209-4.209 4.209-11.033 0-15.24L263.82 3.149a10.734 10.734 0 0 0-7.818-3.147 10.736 10.736 0 0 0-7.818 3.147L22.028 229.303a10.771 10.771 0 0 0 0 15.24l98.686 98.686a10.741 10.741 0 0 0 7.62 3.157c2.757 0 5.516-1.052 7.62-3.157l39.488-39.489v197.483c0 5.952 4.825 10.777 10.777 10.777h139.563c5.952 0 10.777-4.825 10.777-10.777V303.74l39.488 39.489a10.741 10.741 0 0 0 7.62 3.157c2.757 0 5.516-1.052 7.62-3.157l98.686-98.686a10.771 10.771 0 0 0 3.157-7.62 10.766 10.766 0 0 0-3.156-7.62zM196.996 490.445V282.187L256 223.181l59.004 59.005v208.259H196.996zm-39.68-365.949 83.444 83.444-112.426 112.427-83.446-83.444 112.428-112.427z" />
</svg>